<?xml version="1.0" encoding="UTF-8" standalone="no"?>
<!-- Created with Inkscape (http://www.inkscape.org/) -->

<svg
   xmlns:dc="http://purl.org/dc/elements/1.1/"
   xmlns:cc="http://creativecommons.org/ns#"
   xmlns:rdf="http://www.w3.org/1999/02/22-rdf-syntax-ns#"
   xmlns:svg="http://www.w3.org/2000/svg"
   xmlns="http://www.w3.org/2000/svg"
   xmlns:xlink="http://www.w3.org/1999/xlink"
   xmlns:sodipodi="http://sodipodi.sourceforge.net/DTD/sodipodi-0.dtd"
   xmlns:inkscape="http://www.inkscape.org/namespaces/inkscape"
   width="800"
   height="800"
   id="svg2"
   version="1.1"
   inkscape:version="0.48.3.1 r9886"
   sodipodi:docname="ink-man.svg"
   inkscape:export-filename="/home/hamed/Projects/myinks/ink-man2.png"
   inkscape:export-xdpi="300.03751"
   inkscape:export-ydpi="300.03751">
  <defs
     id="defs4">
    <inkscape:path-effect
       effect="skeletal"
       id="path-effect4029"
       is_visible="true"
       pattern="m 540.22382,257.95468 c 0,-2.76 2.24,-5 5,-5 2.76,0 5,2.24 5,5 0,2.76 -2.24,5 -5,5 -2.76,0 -5,-2.24 -5,-5 z"
       copytype="single_stretched"
       prop_scale="1"
       scale_y_rel="false"
       spacing="0"
       normal_offset="0"
       tang_offset="0"
       prop_units="false"
       vertical_pattern="false"
       fuse_tolerance="0" />
    <inkscape:path-effect
       effect="spiro"
       id="path-effect4027"
       is_visible="true" />
    <linearGradient
       id="linearGradient3847">
      <stop
         id="stop3849"
         offset="0"
         style="stop-color:#ffffff;stop-opacity:1;" />
      <stop
         style="stop-color:#ebebeb;stop-opacity:1"
         offset="0.5"
         id="stop3853" />
      <stop
         id="stop3851"
         offset="1"
         style="stop-color:#c7c7c7;stop-opacity:1" />
    </linearGradient>
    <inkscape:path-effect
       pattern-nodetypes="ccccc"
       fuse_tolerance="0"
       vertical_pattern="false"
       prop_units="false"
       tang_offset="0"
       normal_offset="0"
       spacing="0"
       scale_y_rel="false"
       prop_scale="0.71"
       copytype="single_stretched"
       pattern="m 275.47109,334.94719 5,-5 5,5 -5,5 z"
       is_visible="true"
       id="path-effect3837"
       effect="skeletal" />
    <inkscape:path-effect
       effect="skeletal"
       id="path-effect3831"
       is_visible="true"
       pattern="M 0,5 C 0,2.24 2.24,0 5,0 7.76,0 10,2.24 10,5 10,7.76 7.76,10 5,10 2.24,10 0,7.76 0,5 z"
       copytype="single_stretched"
       prop_scale="1"
       scale_y_rel="false"
       spacing="0"
       normal_offset="0"
       tang_offset="0"
       prop_units="false"
       vertical_pattern="false"
       fuse_tolerance="0" />
    <inkscape:path-effect
       effect="skeletal"
       id="path-effect3827"
       is_visible="true"
       pattern="m 389.54837,237.81853 5,-5 5,5 -5,5 z"
       copytype="single_stretched"
       prop_scale="0.71"
       scale_y_rel="false"
       spacing="0"
       normal_offset="0"
       tang_offset="0"
       prop_units="false"
       vertical_pattern="false"
       fuse_tolerance="0"
       pattern-nodetypes="ccccc" />
    <inkscape:path-effect
       effect="skeletal"
       id="path-effect3823"
       is_visible="true"
       pattern="m 166.87877,283.28167 c 0,-2.76 2.24,-5 5,-5 2.76,0 5,2.24 5,5 0,2.76 -2.24,5 -5,5 -2.76,0 -5,-2.24 -5,-5 z"
       copytype="single_stretched"
       prop_scale="0.31"
       scale_y_rel="false"
       spacing="0"
       normal_offset="0"
       tang_offset="0"
       prop_units="false"
       vertical_pattern="false"
       fuse_tolerance="0" />
    <linearGradient
       inkscape:collect="always"
       id="linearGradient3813">
      <stop
         style="stop-color:#000000;stop-opacity:1;"
         offset="0"
         id="stop3815" />
      <stop
         style="stop-color:#000000;stop-opacity:0;"
         offset="1"
         id="stop3817" />
    </linearGradient>
    <inkscape:path-effect
       pattern-nodetypes="sscss"
       fuse_tolerance="0"
       vertical_pattern="false"
       prop_units="false"
       tang_offset="0"
       normal_offset="0"
       spacing="0"
       scale_y_rel="false"
       prop_scale="1"
       copytype="single_stretched"
       pattern="m -136.61582,-71.338449 c 0,-2.76 26.56049,-6.77141 24.99999,-4.494923 l -3.08121,4.494923 3.08121,4.747463 c 1.50258,2.315141 -24.99999,-1.987463 -24.99999,-4.747463 z"
       is_visible="true"
       id="path-effect3811"
       effect="skeletal" />
    <inkscape:path-effect
       effect="skeletal"
       id="path-effect3807"
       is_visible="true"
       pattern="M 0,5 C 0,2.24 2.24,0 5,0 7.76,0 10,2.24 10,5 10,7.76 7.76,10 5,10 2.24,10 0,7.76 0,5 z"
       copytype="single_stretched"
       prop_scale="1"
       scale_y_rel="false"
       spacing="0"
       normal_offset="0"
       tang_offset="0"
       prop_units="false"
       vertical_pattern="false"
       fuse_tolerance="0" />
    <inkscape:path-effect
       effect="skeletal"
       id="path-effect3803"
       is_visible="true"
       pattern="M 0,5 C 0,2.24 2.24,0 5,0 7.76,0 10,2.24 10,5 10,7.76 7.76,10 5,10 2.24,10 0,7.76 0,5 z"
       copytype="single_stretched"
       prop_scale="1"
       scale_y_rel="false"
       spacing="0"
       normal_offset="0"
       tang_offset="0"
       prop_units="false"
       vertical_pattern="false"
       fuse_tolerance="0" />
    <inkscape:path-effect
       effect="skeletal"
       id="path-effect3799"
       is_visible="true"
       pattern="M 0,5 C 0,2.24 2.24,0 5,0 7.76,0 10,2.24 10,5 10,7.76 7.76,10 5,10 2.24,10 0,7.76 0,5 z"
       copytype="single_stretched"
       prop_scale="1"
       scale_y_rel="false"
       spacing="0"
       normal_offset="0"
       tang_offset="0"
       prop_units="false"
       vertical_pattern="false"
       fuse_tolerance="0" />
    <inkscape:path-effect
       effect="skeletal"
       id="path-effect3783"
       is_visible="true"
       pattern="m -5.0507675,75.710678 5.00000002,0.0508 4.99999998,-0.0508 -4.99999998,1.96954 z"
       copytype="single_stretched"
       prop_scale="1"
       scale_y_rel="false"
       spacing="0"
       normal_offset="0"
       tang_offset="0"
       prop_units="false"
       vertical_pattern="false"
       fuse_tolerance="0"
       pattern-nodetypes="ccccc" />
    <inkscape:path-effect
       effect="skeletal"
       id="path-effect3779"
       is_visible="true"
       pattern="m 1256.3178,115.46378 5,-2.5 5,2.5 -5,2.5 z"
       copytype="single_stretched"
       prop_scale="1"
       scale_y_rel="false"
       spacing="0"
       normal_offset="0"
       tang_offset="0"
       prop_units="false"
       vertical_pattern="false"
       fuse_tolerance="0"
       pattern-nodetypes="ccccc" />
    <inkscape:path-effect
       effect="skeletal"
       id="path-effect3775"
       is_visible="true"
       pattern="m -215.88468,-281.00571 5,-0.95939 5,0.95939 -5,5 z"
       copytype="single_stretched"
       prop_scale="1"
       scale_y_rel="false"
       spacing="0"
       normal_offset="0"
       tang_offset="0"
       prop_units="false"
       vertical_pattern="false"
       fuse_tolerance="0"
       pattern-nodetypes="ccccc" />
    <inkscape:path-effect
       effect="skeletal"
       id="path-effect3771"
       is_visible="true"
       pattern="m 1094.8461,669.38628 5,-5 85,5 -25,-15 z"
       copytype="single_stretched"
       prop_scale="1"
       scale_y_rel="false"
       spacing="0"
       normal_offset="0"
       tang_offset="0"
       prop_units="false"
       vertical_pattern="false"
       fuse_tolerance="0"
       pattern-nodetypes="ccccc" />
    <inkscape:path-effect
       effect="skeletal"
       id="path-effect2995"
       is_visible="true"
       pattern="m -173.81251,302.40785 c 0,-2.76 2.24,-5 5,-5 2.76,0 5,2.24 5,5 0,2.76 -2.24,5 -5,5 -2.76,0 -5,-2.24 -5,-5 z"
       copytype="single_stretched"
       prop_scale="1"
       scale_y_rel="false"
       spacing="0"
       normal_offset="0"
       tang_offset="0"
       prop_units="false"
       vertical_pattern="false"
       fuse_tolerance="0" />
    <inkscape:path-effect
       effect="skeletal"
       id="path-effect2991"
       is_visible="true"
       pattern="m 903.41752,-1.7385623 c 0,-2.76 26.5605,-6.77141 25,-4.494923 l 36.9188,4.494923 -36.9188,4.747463 c -2.7374,0.352016 -25,-1.987463 -25,-4.747463 z"
       copytype="single_stretched"
       prop_scale="1"
       scale_y_rel="false"
       spacing="0"
       normal_offset="0"
       tang_offset="0"
       prop_units="false"
       vertical_pattern="false"
       fuse_tolerance="0"
       pattern-nodetypes="sscss" />
    <inkscape:path-effect
       effect="skeletal"
       id="path-effect2987"
       is_visible="true"
       pattern="m -62.579537,748.71698 12.71429,-5 -2.71429,5 2.71429,5 z"
       copytype="single_stretched"
       prop_scale="1"
       scale_y_rel="false"
       spacing="0"
       normal_offset="0"
       tang_offset="0"
       prop_units="false"
       vertical_pattern="false"
       fuse_tolerance="0"
       pattern-nodetypes="ccccc" />
    <radialGradient
       inkscape:collect="always"
       xlink:href="#linearGradient3813"
       id="radialGradient3819"
       cx="-594.95294"
       cy="321.47311"
       fx="-594.95294"
       fy="321.47311"
       r="132.90553"
       gradientTransform="matrix(0.14047827,-0.05410874,0.02583546,0.06707458,-534.4164,420.55522)"
       gradientUnits="userSpaceOnUse" />
  </defs>
  <sodipodi:namedview
     id="base"
     pagecolor="#ffffff"
     bordercolor="#666666"
     borderopacity="1.0"
     inkscape:pageopacity="0.0"
     inkscape:pageshadow="2"
     inkscape:zoom="0.38351195"
     inkscape:cx="739.77274"
     inkscape:cy="435.02473"
     inkscape:document-units="px"
     inkscape:current-layer="layer1"
     showgrid="false"
     inkscape:window-width="1366"
     inkscape:window-height="744"
     inkscape:window-x="0"
     inkscape:window-y="24"
     inkscape:window-maximized="1" />
  <metadata
     id="metadata7">
    <rdf:RDF>
      <cc:Work
         rdf:about="">
        <dc:format>image/svg+xml</dc:format>
        <dc:type
           rdf:resource="http://purl.org/dc/dcmitype/StillImage" />
        <dc:title></dc:title>
      </cc:Work>
    </rdf:RDF>
  </metadata>
  <g
     inkscape:label="Layer 1"
     inkscape:groupmode="layer"
     id="layer1"
     transform="translate(0,-252.36218)">
    <path
       inkscape:connector-curvature="0"
       d="m 451.23963,445.87759 c 0.2585,-0.38123 1.21892,-1.01906 0.7755,-1.14371 -0.7294,-0.20505 -4.7932,2.68025 -5.35855,3.09015 -4.91874,3.56629 -9.20404,7.63721 -13.53302,11.88188 -8.13899,7.88459 -14.42391,17.30294 -21.25451,26.26602 -8.53978,11.20586 -3.32102,3.66997 -9.77712,13.38464 -1.32096,2.00582 -2.68207,3.98578 -3.96288,6.01748 -8.38113,13.29462 0.82866,-0.95604 -6.36293,10.85845 -3.27254,5.37621 -6.97086,10.46234 -10.71114,15.51572 -6.70651,9.5655 -15.10475,17.67921 -22.46375,26.71839 -5.68381,7.29594 -11.62649,14.43549 -18.33052,20.82145 -4.06641,3.96951 -8.51374,7.519 -12.68185,11.3813 0.9772,-0.69046 -0.0531,0.42931 0.0499,0.36347 0.36176,-0.23107 1.09095,-1.28162 0.94058,-0.87957 -0.28772,0.76932 -1.67935,1.48151 -1.83486,2.35044 0.77324,-0.75811 0.66686,-0.73169 -0.52408,1.46068 -0.25176,0.46346 0.7857,-1.94705 0.67384,-1.43162 -0.5833,2.68779 -3.1549,7.50026 -4.3208,9.95129 -3.5767,7.15096 -8.64803,13.31514 -14.05051,19.14014 -2.7792,2.61602 -4.50464,5.04928 -7.01933,7.97096 -3.27252,4.01278 -7.32222,7.25462 -10.74253,11.12361 0.01,0.13769 -0.053,0.52387 0.0293,0.41306 5.11687,-6.88881 10.50448,-14.25065 7.64484,-24.23287 -2.80175,-9.78015 -9.14356,-18.3613 -15.55946,-26.25671 -3.86322,-4.75408 -14.46842,-4.91986 -19.49991,-5.51074 -4.84541,0.67989 -4.53662,0.31415 -8.73418,1.98834 -0.51565,0.20568 -1.94682,1.06798 -1.46528,0.79171 3.06934,-1.76098 6.04131,-3.63103 9.0773,-5.45685 5.30412,-3.31649 10.77999,-6.3979 15.60357,-10.40689 2.69962,-2.00402 5.37692,-4.04832 7.91452,-6.25137 2.49589,-2.12887 4.61118,-4.59624 6.72543,-7.08593 2.32367,-3.03763 4.54275,-6.14678 6.74846,-9.29351 4.83633,-7.25166 11.21642,-13.18411 17.9184,-18.66551 6.92619,-5.95044 14.3501,-11.30679 22.11533,-16.09471 8.94339,-4.92383 17.8185,-9.97826 26.95146,-14.54722 7.30853,-4.18058 14.54801,-8.48149 21.5508,-13.16338 9.22629,-5.62513 18.99294,-10.13658 29.15774,-13.74137 9.05253,-3.04938 18.0522,-6.3655 25.6431,-12.27118 3.03709,-2.472 5.61612,-5.43451 8.26909,-8.29888 4.7464,-5.27968 10.2894,-9.82227 16.442,-13.36843 10.15016,-5.77811 22.31366,-12.46677 34.59467,-9.31588 7.98139,2.04775 14.71967,7.41043 22.0795,11.11565 3.49568,6.45137 8.25423,12.36452 10.48706,19.35413 1.47948,4.63132 0.68457,9.73078 0.35366,14.5814 -0.59831,8.77041 -6.48106,18.66847 -11.07439,26.05764 -9.2604,14.46579 -21.31181,26.87955 -32.58743,39.75721 -16.34646,18.55657 -31.96586,37.73059 -46.41572,57.79915 -13.74656,19.354 -27.93727,38.38355 -42.25414,57.31775 -2.11398,2.86246 -4.22173,5.72952 -6.34193,8.58738 -1.75523,2.3659 -3.57763,4.6827 -5.28431,7.08386 -5.34207,7.51581 -9.98837,15.46474 -15.46249,22.88393 -5.31968,7.79664 -9.78858,16.1184 -14.69445,24.17276 -5.58927,8.79334 -11.75552,17.22944 -18.44537,25.21741 -0.91588,1.08066 -1.82702,2.16535 -2.74765,3.24197 -0.82875,0.95958 -1.65749,1.91917 -2.48623,2.87875 -0.43313,0.53318 -0.85565,1.07515 -1.29938,1.59954 -0.85384,1.00908 -3.44546,4.01057 -2.59292,3.00039 10.1678,-12.04788 4.48276,-2.85652 9.6533,-28.73518 -17.00251,-9.54527 -32.9808,-21.20385 -51.00754,-28.63582 -2.59603,-1.07027 -4.69519,3.08498 -6.968,4.73396 -0.52871,0.38359 1.20043,-0.54057 1.72489,-0.92996 1.05712,-0.78487 2.02725,-1.68244 2.99546,-2.57468 3.64599,-3.35994 7.19195,-6.82719 10.82903,-10.19678 13.11428,-10.41823 24.6175,-22.60761 37.46248,-33.32197 7.78653,-5.87602 14.05763,-13.3061 22.01857,-18.99917 2.98982,-2.13809 6.13681,-4.0474 9.20522,-6.07109 20.06632,-10.42328 39.27233,-22.33766 58.71807,-33.8442 12.00092,-7.19859 22.8196,-16.15334 32.87481,-25.83985 8.1006,-7.73939 17.32006,-14.28747 26.69175,-20.39535 5.08233,-3.06879 9.86846,-6.52986 14.47998,-10.25562 -1.29191,0.8101 3.75453,-3.33185 2.70467,-3.12239 -0.66204,0.13208 -1.26395,0.63035 -1.63624,1.19352 -2.39465,3.62237 -9.58275,8.10043 -6.5838,11.24086 16.346,17.11719 38.21806,27.93096 57.3271,41.89645 2.71407,-2.8347 5.48901,-5.61235 8.14222,-8.5041 0.14533,-0.1584 -0.43753,0.11353 -0.58623,0.26876 -1.02775,1.07289 -2.03744,2.18741 -2.82668,3.44615 -2.72401,4.34447 -5.30047,8.77973 -7.95301,13.16821 -7.02551,12.21243 -15.23107,23.69025 -22.68836,35.6256 -3.83351,6.1355 -6.08331,10.7088 -9.49266,17.17277 -1.71934,3.19864 -3.47457,6.37825 -5.15801,9.59592 -4.23936,8.10297 -5.01434,10.22173 -9.46954,18.37813 -5.50903,10.08573 -11.58448,19.82811 -17.67118,29.56936 -12.80675,19.12749 -25.74188,38.17125 -38.98901,56.99697 -12.10535,17.5644 -26.5523,33.26515 -41.56529,48.3471 -7.41789,8.78574 -16.8284,15.53206 -24.87169,23.66924 -0.33925,0.34321 -5.32647,6.10609 -5.76762,6.61486 -0.17842,0.49097 -0.69253,0.97474 -0.53528,1.47289 0.097,0.30738 0.79458,0.14276 0.95747,-0.13538 2.18509,-3.73115 5.82829,-7.23381 5.89017,-11.55727 0.13399,-9.36105 -0.9669,-19.2925 -5.33002,-27.57563 -6.33395,-12.02461 -15.07866,-12.12835 -25.37849,-14.0701 -1.7308,0.15587 -3.4643,0.28439 -5.19243,0.46761 -0.76244,0.0808 -1.0866,0.38593 -0.97511,0.17758 0.28782,-0.5379 1.02634,-0.66241 1.50971,-1.03461 0.66393,-0.51124 1.28584,-1.07483 1.92876,-1.61224 9.52183,-7.44504 18.11338,-15.98895 27.2453,-23.89337 3.83777,-3.3219 7.75143,-6.55512 11.62715,-9.83268 4.04207,-3.31663 8.09423,-6.62102 12.12622,-9.94989 7.61989,-6.29109 15.99066,-13.4171 23.78842,-19.48903 9.37257,-7.2982 14.31139,-10.47627 23.48553,-17.69218 3.15841,-2.48425 6.2074,-5.10456 9.3111,-7.65683 2.72046,-2.45088 5.47442,-4.86508 8.16139,-7.35264 5.90741,-5.46902 10.67154,-10.30548 16.61289,-15.75085 8.55891,-7.84441 17.25832,-15.54437 25.8307,-23.37672 10.65698,-9.1487 21.17126,-18.47614 31.06464,-28.45226 3.25752,-2.73664 6.19077,-5.83819 9.35559,-8.67379 3.50222,-3.13793 2.1482,-1.32089 3.76086,-3.79644 52.52886,-1.20717 48.9388,-15.63631 57.74324,43.43332 0.47397,3.17993 -3.10266,5.64147 -4.89319,8.31178 -1.23104,1.83593 -2.7239,3.48333 -4.14886,5.17318 -4.05686,4.81102 -9.24412,10.40537 -13.39478,14.96723 -20.97626,22.34926 -42.90509,43.80969 -65.03975,65.00735 -16.38273,16.73327 -32.73002,34.03321 -44.86827,54.21677 -1.39835,2.32519 -2.56305,4.78313 -3.84458,7.1747 -3.29208,6.02292 -6.69835,11.99584 -9.77922,18.13236 -3.06655,6.10799 -1.65835,4.28849 -5.80431,11.14039 -1.61514,2.6693 -3.38669,5.24078 -5.08004,7.86116 -3.87218,6.25671 -8.64999,11.81505 -13.38042,17.412 -2.96008,3.5023 -5.78483,7.07043 -8.84791,10.48362 -18.37688,-16.22644 -38.66224,-30.51896 -55.13065,-48.67932 -1.84987,-2.03993 3.25605,-4.45131 5.07585,-6.51811 1.03808,-1.17899 2.2958,-2.1452 3.47042,-3.18821 3.71305,-3.29703 7.54013,-6.44933 11.41838,-9.54775 3.79108,-3.34694 7.53444,-6.71204 11.06468,-10.33892 2.04862,-2.10469 3.90483,-4.40112 6.06037,-6.39617 8.21398,-7.60242 19.49732,-16.23075 27.99576,-22.98228 27.22659,-20.83488 56.52107,-38.61801 85.81795,-56.31664 25.97736,-15.80079 13.2978,-8.12049 38.03453,-23.04777 4.86791,-3.04771 9.73581,-6.09543 14.60371,-9.14314 0,0 27.2079,54.16188 27.2079,54.16188 l 0,0 c -5.05192,1.93545 -10.10384,3.8709 -15.15575,5.80635 -5.89342,2.61523 -11.8817,5.02637 -17.68027,7.84568 -6.74375,3.27887 -13.35513,6.82818 -19.92699,10.43926 -20.21847,11.10954 -40.17947,23.19284 -57.53785,38.52773 -5.08915,4.4959 -9.61547,9.5913 -14.42321,14.38695 -3.34614,4.1111 -6.91741,8.04879 -10.03842,12.33331 -2.46017,3.37732 -4.36519,7.12814 -6.67457,10.6103 -6.13178,9.24574 -12.82233,18.28333 -20.51845,26.28372 -1.08607,1.18538 -2.16775,2.37482 -3.25823,3.55616 -0.75589,0.81887 -1.5645,1.59071 -2.28084,2.44441 -3.57071,4.25533 4.68845,0.16148 2.22399,-2.22609 -17.52935,-16.98247 -37.28493,-31.50495 -55.9274,-47.25743 -0.35854,0.60964 -1.17779,1.12908 -1.07563,1.82892 0.0645,0.44187 0.89033,-0.16272 1.28969,-0.36253 0.74135,-0.37089 1.43745,-0.83406 2.09939,-1.33305 2.88397,-2.17404 5.07357,-5.10774 7.49123,-7.74777 3.50579,-4.73442 5.96948,-9.97807 8.99565,-15.03047 4.4005,-7.34692 9.22299,-14.48653 14.6055,-21.14937 6.33244,-7.76762 8.85705,-11.04987 15.74571,-18.6824 14.5371,-16.10692 30.6596,-30.67802 45.39322,-46.60075 18.87338,-20.46245 38.20212,-40.72388 54.22853,-63.56138 3.43794,-6.023 3.98475,-6.46104 6.39176,-12.36905 0.41625,-1.02169 2.09378,-2.7646 1.05528,-3.13695 -1.06452,-0.38168 -2.11338,1.76982 -1.82126,2.86231 14.94,55.87431 2.5841,42.04865 58.1641,40.26305 -2.14269,0.50906 -2.57299,1.16814 -4.58715,2.68851 -2.6918,2.03187 -5.46921,3.94565 -8.23611,5.87262 -11.18838,7.99405 -23.00758,15.05288 -33.91558,23.44795 -18.68616,14.99508 -35.96886,31.60281 -54.48681,46.80084 -22.04359,16.30619 -45.31167,31.17718 -64.72702,50.75147 -2.75706,2.89391 -5.61861,5.69174 -8.27118,8.68172 -10.05379,11.33264 -17.75832,24.66788 -28.99746,34.92693 -2.83212,2.2063 -7.68856,6.06259 -10.54023,7.94328 -9.52638,6.28272 -20.04872,10.13146 -31.4435,11.1779 -13.51984,-1.6543 -25.42814,-0.73876 -34.38235,-15.40007 -12.31071,-20.15711 -9.78536,-29.50595 -0.83113,-46.1951 1.33952,-2.49663 7.84098,-8.64268 9.7799,-10.56331 10.58202,-9.37107 22.19459,-17.48615 32.59809,-27.07164 12.52153,-12.67935 25.34698,-25.13729 36.07179,-39.43581 12.83178,-17.2525 24.32279,-35.44826 36.23566,-53.33805 4.27477,-6.92213 6.36152,-10.18446 10.41038,-17.19841 6.97867,-12.08937 13.08501,-24.65215 19.96923,-36.79435 3.92459,-7.12767 7.68634,-14.34644 11.73687,-21.40331 1.66312,-2.8975 3.52811,-5.67511 5.22365,-8.55376 4.41415,-7.49422 8.45399,-15.21014 11.85807,-23.21892 2.55798,-6.28083 4.79366,-12.61126 7.41278,-18.87341 0.56548,-1.35202 2.73477,-6.78555 3.59343,-7.88001 3.06999,-3.91309 6.6135,-7.43034 9.92025,-11.14551 19.51193,13.6782 41.89186,23.98209 58.53581,41.03458 3.3114,3.39268 -14.34027,19.76619 -17.62834,22.62382 -1.10238,0.95807 -2.2429,1.87135 -3.36435,2.80702 -3.26284,2.64297 -4.33139,3.63012 -7.8016,5.96373 -4.59233,3.08822 -9.57067,5.57639 -14.15798,8.67515 -6.79938,3.96844 -13.30481,8.42383 -19.49242,13.29149 -6.14484,4.73783 -12.34482,9.38574 -18.90865,13.53976 -5.60257,3.54569 -10.66718,6.22431 -16.41085,9.59111 -3.24136,1.9 -6.44806,3.85851 -9.67209,5.78777 -9.44643,5.48788 -18.88501,10.93835 -28.19408,16.65792 -4.3958,2.70081 -13.50929,8.24814 -17.90403,11.25235 -1.99426,1.36326 -3.87606,2.88415 -5.81409,4.32623 -9.49251,8.3278 -17.93386,17.89295 -28.32135,25.18152 -11.14604,7.82832 -21.94002,16.26675 -31.14294,26.36787 -4.14672,4.88761 -8.02781,9.95922 -12.06609,14.93467 -1.3997,1.72453 -2.59468,3.65448 -4.26185,5.12204 -3.51761,3.09647 -6.70646,9.80836 -11.20422,8.49238 -19.27623,-5.63996 -35.75388,-18.30816 -53.63082,-27.46224 1.44208,-8.04388 1.73122,-16.38249 4.32623,-24.13166 1.66428,-4.96989 10.57058,-12.74936 14.70051,-17.12253 4.56714,-4.98127 8.89635,-10.10728 12.60162,-15.78385 6.33637,-9.71104 12.15463,-19.76172 19.41296,-28.8478 4.12863,-5.18555 8.43385,-10.19546 12.73496,-15.23827 4.0754,-4.77816 8.0015,-9.68403 12.14239,-14.40555 2.01668,-2.29946 4.14269,-4.50068 6.21403,-6.75101 14.49939,-17.94137 28.16585,-36.50731 42.12103,-54.87291 5.05169,-6.79945 10.9155,-14.78439 16.13869,-21.43655 10.20871,-13.0016 21.11593,-25.48296 30.39046,-39.19987 7.04287,-10.01181 4.8056,-6.67984 11.25319,-16.40528 0.51601,-0.77834 5.793,-8.72309 6.7951,-10.48667 1.33875,-2.35601 2.12278,-5.0025 3.56355,-7.30675 0.45216,-0.95844 0.90042,-1.91872 1.35649,-2.87531 0.11654,-0.24444 0.45581,-0.98144 0.3613,-0.72766 -5.0033,13.43472 1.67894,20.52247 9.17178,32.17062 6.69813,3.05777 12.91294,7.54801 20.09439,9.17333 6.21453,1.4065 11.74833,-0.42288 16.90395,-3.05572 0.49745,-0.25403 -4.37608,1.58464 -2.3894,1.30246 -0.6457,0.43596 -1.20206,1.04966 -1.93712,1.3079 -0.73544,0.25836 1.36172,-0.91679 1.67719,-1.62959 0.0609,-0.13766 -0.23848,0.18458 -0.34782,0.28805 -0.61991,0.58666 -1.22606,1.18769 -1.83909,1.78154 -0.69234,0.65249 -1.38468,1.30499 -2.07701,1.95749 -6.82803,6.19482 -14.08732,11.90136 -22.01469,16.64371 -6.11904,3.30692 -12.29068,6.55418 -18.70593,9.26252 -14.04812,5.93072 1.98,-1.42199 -11.44362,4.51953 -1.79384,0.79398 -3.54782,1.6751 -5.32173,2.51265 -5.92869,3.29445 -11.9093,6.51404 -18.12657,9.23635 -8.86822,5.38541 -17.94029,10.38413 -26.96558,15.4971 -7.45769,4.15093 -14.99302,8.17908 -22.12519,12.88401 -4.47122,2.81299 -8.36352,6.45782 -12.37085,9.86859 -2.12842,1.99202 -4.14486,3.74944 -5.44342,5.46739 -3.60677,5.20977 -6.99793,10.57047 -11.15055,15.38438 -4.23242,4.85308 -8.5148,9.65293 -13.40824,13.86233 -4.55213,4.12893 -9.20921,8.19165 -14.70245,11.0452 -6.50285,4.2812 -13.31039,8.0691 -19.72975,12.481 -4.87546,3.19039 -9.5803,7.02929 -14.80457,9.6227 -8.02646,3.98446 -8.76791,3.51326 -17.57819,5.25061 -6.90046,-0.46649 -20.75015,0.12111 -26.4252,-6.09562 -7.35143,-8.05315 -14.30974,-17.18677 -17.57284,-27.59104 -3.73115,-11.89663 4.56628,-24.49736 11.76137,-32.75832 3.19951,-3.6759 6.31464,-7.42073 9.51355,-11.09491 2.99989,-3.52842 5.975,-7.08005 9.31299,-10.30082 0.0943,-0.0986 2.39809,-3.01483 2.10125,-1.71621 0.60515,-0.94949 0.81487,-1.78748 1.3483,-3.14851 1.6903,-4.31272 3.36216,-8.29404 5.83983,-12.21273 4.31596,-6.82754 8.75659,-13.56339 15.10558,-18.72661 3.8126,-3.23157 7.79159,-6.2602 11.52689,-9.58016 4.96607,-4.48836 10.5713,-8.22343 14.86789,-13.45131 3.17115,-3.41721 4.93539,-5.17394 7.83209,-8.90709 3.98426,-5.13474 7.25534,-10.83279 11.75413,-15.58195 7.83301,-9.16939 14.81474,-19.04246 22.04057,-28.68642 5.50713,-7.06898 11.25273,-13.94531 16.7077,-21.05385 5.6692,-7.38772 6.99633,-9.49703 12.72602,-16.84023 2.07301,-2.65678 4.21664,-5.2577 6.32496,-7.88654 9.41276,-11.04548 18.99794,-22.11025 29.94628,-31.6669 0,0 38.50323,64.17203 38.50323,64.17203 z"
       id="path3853"
       style="opacity:0.93827156000000000;fill:#f6b9cc;fill-opacity:1;fill-rule:nonzero;stroke:none" />
    <path
       inkscape:connector-curvature="0"
       d="m 204.79559,679.86662 c 1.09759,-0.67506 2.23673,-1.2868 3.29276,-2.02519 3.3928,-2.37229 6.04756,-4.77467 9.22833,-7.46903 6.68821,-5.66543 13.22366,-11.48157 19.77536,-17.30428 18.63047,-16.95079 39.9232,-30.39261 61.49072,-43.21846 15.793,-9.36705 32.08359,-17.86535 47.91763,-27.15983 10.03365,-5.88968 11.48913,-6.9776 21.12154,-13.21248 10.51996,-7.11188 21.26038,-13.8465 32.19658,-20.29425 3.48467,-2.05448 7.04992,-3.97564 10.4724,-6.13213 5.7558,-3.6267 11.23963,-7.66815 16.87709,-11.4762 14.30242,-10.06298 29.63228,-18.59078 43.51434,-29.23837 8.86919,-6.71019 18.01597,-13.00915 27.54001,-18.7517 6.84418,-3.75147 12.82036,-8.71349 18.86654,-13.58085 9.43123,-3.93553 -2.62272,-0.67205 5.19773,-5.25403 32.25377,-18.8974 16.39089,-1.81819 55.07353,49.2191 -2.86854,5.09155 -7.34354,8.22659 -11.5199,11.98365 -1.84184,1.65692 -3.55346,3.45311 -5.32942,5.18048 -9.84771,10.79474 -19.56162,21.69565 -29.59967,32.31644 -17.79247,19.39516 -35.29378,39.05418 -52.53577,58.94018 -3.25684,3.76932 -6.59161,7.47268 -9.7705,11.30796 -2.97435,3.5885 -15.27645,19.39157 -17.94361,22.80582 -9.68232,12.39442 -19.20085,24.9059 -28.73917,37.41132 -16.38335,22.34594 -33.03511,44.4867 -49.87409,66.49039 -13.06357,17.19155 -25.61983,34.7488 -38.15688,52.32416 -6.68446,9.51001 -12.93884,19.29726 -19.06664,29.17046 -5.26198,8.13236 -11.71098,15.37998 -18.1475,22.5815 0.50078,0.2271 -0.60349,1.90181 -0.19208,1.57139 18.92411,-15.19969 -29.34215,-39.1508 -47.73734,-54.98649 -2.8597,-2.46179 -4.49065,2.67409 -5.14643,4.57491 10.43238,-9.20149 20.62837,-18.71734 30.88995,-28.1244 19.58644,-19.19312 43.86465,-32.32378 67.82153,-45.16349 24.45666,-13.10755 23.27124,-12.23563 48.8741,-24.81453 33.15269,-15.84071 66.94232,-30.28907 100.21995,-45.86234 6.95916,-3.25675 13.94509,-6.46342 20.79927,-9.93567 5.83096,-2.9539 11.49602,-6.22443 17.24403,-9.33665 44.14449,-25.82414 -12.54186,7.46703 25.60353,-15.30467 3.49443,-2.08608 7.09904,-3.98624 10.56514,-6.11908 2.70655,-1.66544 5.27843,-3.54086 7.94436,-5.27058 14.83833,-9.62744 0.94308,-0.31507 13.28427,-8.65995 5.83675,-3.61201 10.24632,-8.87133 15.35669,-13.3305 2.71372,-2.45955 1.41898,-1.26345 3.88913,-3.58296 0,0 47.80424,55.4478 47.80424,55.4478 l 0,0 c -3.37567,2.72768 -1.6766,1.3692 -5.09742,4.07519 -1.2581,0.99676 -5.74423,4.56071 -6.49247,5.09732 -6.87624,4.93134 -14.54257,8.65878 -22.01553,12.56229 -22.04666,10.17409 -44.49279,19.48927 -67.34042,27.71743 -46.78319,16.88332 -93.32395,34.87241 -137.87435,57.07377 -25.97313,15.20249 -52.52126,30.17699 -74.99228,50.45553 -8.14666,7.35181 -10.93478,11.22033 -17.92683,19.51587 -8.77831,11.14969 -16.90393,22.77792 -25.32453,34.19278 -1.37292,1.60598 -9.45648,11.58405 -11.03648,10.3697 -45.12263,-34.68051 -67.37719,-33.74088 -47.91849,-55.75601 1.90885,-2.15961 4.67548,-3.49481 5.99725,-6.2291 4.39298,-4.32371 8.5845,-8.8474 12.35471,-13.73144 8.03081,-10.17938 15.53758,-20.80263 24.58743,-30.13811 14.2645,-16.1707 27.34369,-33.33065 40.43205,-50.45437 6.70366,-8.24816 8.98005,-11.10289 15.86364,-19.34905 12.13926,-14.54215 24.91208,-28.57135 35.99774,-43.96844 18.88987,-25.21827 37.26689,-50.86252 57.56594,-74.98567 16.82604,-20.36622 33.92838,-40.52704 49.51968,-61.87254 4.22731,-5.54198 6.59907,-8.55514 10.54987,-14.0708 5.21021,-7.27389 9.89794,-14.92301 15.52405,-21.89564 7.786,-10.2341 -0.83473,1.04605 5.50546,-7.12229 1.26713,-1.63249 2.70092,-3.14994 3.79041,-4.90596 0.10388,-0.16744 0.23711,-0.73031 0.10841,-0.5811 -1.25814,1.45859 -2.36278,3.04284 -3.54417,4.56426 14.23379,18.33289 25.30876,39.63013 42.70139,54.99868 3.46295,3.05995 8.29866,-4.08449 12.29787,-6.40001 0.49974,-0.28934 1.62897,-1.54704 1.08638,-1.3494 -1.14693,0.41776 -2.01869,1.37289 -3.0295,2.05717 -4.97952,3.37093 -2.9367,2.16282 -6.22841,4.00736 -8.39822,4.80872 -16.04103,10.85679 -24.50202,15.56575 -8.70061,4.92775 -16.78776,10.88421 -25.66628,15.52656 -15.3684,8.88027 -31.33836,16.74681 -45.99529,26.83025 -20.25884,12.27439 -41.22909,23.37205 -61.14897,36.21426 -22.99039,14.08439 -46.77244,26.79989 -69.74904,40.90906 -7.6476,4.79608 -12.18772,7.46981 -19.47505,12.71012 -10.47356,7.53154 -19.96189,16.3127 -29.17101,25.31488 -9.36611,9.22451 -18.98567,18.58602 -26.01378,29.77597 0,0 -52.44171,-52.44172 -52.44171,-52.44172 z"
       id="path3855"
       style="opacity:0.93827156000000000;fill:#f28e9e;fill-opacity:1;fill-rule:nonzero;stroke:none" />
    <path
       style="fill:#fcf4c5;fill-opacity:1;stroke:none"
       d="m 504.54752,422.56716 -56.7127,61.2758 -9.77806,-119.29224 -103.64736,-237.28075 4.5631,-21.51171 41.06782,58.01644 z"
       id="path4050"
       inkscape:connector-curvature="0"
       transform="translate(0,252.36218)"
       sodipodi:nodetypes="ccccccc" />
    <path
       sodipodi:nodetypes="cscc"
       inkscape:connector-curvature="0"
       inkscape:original-d="M 516.27471,717.0522 C 373.41757,331.33792 266.27472,274.19506 384.84614,495.62362 c 118.57143,221.42858 35.56696,326.32255 -40,242.85715 167.87161,-155.19658 -211.64248,261.16779 130.93581,150.85872"
       inkscape:path-effect="#path-effect3771"
       id="path4032"
       d="M 523.30783,714.44734 C 513.28542,692.18039 503.03856,670.01251 492.49739,648.00923 471.07081,593.47233 447.83364,539.62861 421.66203,487.14906 409.8429,463.4481 397.41067,439.99273 383.65768,417.26438 c -4.92539,-8.13999 -10.03613,-16.19855 -15.47792,-24.06213 -4.00117,-5.78564 -8.19658,-11.51524 -12.82457,-16.96695 -2e-5,-2e-5 -3e-5,-3e-5 -5e-5,-5e-5 -1.70014,-2.00317 -3.48169,-3.98409 -5.39107,-5.88886 -1.45061,-1.45247 -3.02168,-2.89412 -4.7768,-4.22578 -1.2102,-0.94396 -2.67025,-1.8864 -4.44377,-2.61959 -1.15568,-0.57826 -2.84273,-0.86616 -4.93295,-0.53937 -0.89474,0.20141 -1.73709,0.59408 -2.49355,1.16795 -0.77398,0.62192 -1.35247,1.29907 -1.74034,1.98829 -1e-5,2e-5 -2e-5,4e-5 -3e-5,6e-5 -0.94476,1.75633 -1.32076,3.38628 -1.37748,4.70024 0,3e-5 0,5e-5 0,8e-5 -0.1782,1.99903 -0.0853,3.88048 0.11,5.61171 0,2e-5 0,4e-5 0,7e-5 0.25647,2.40175 0.68081,4.72733 1.17574,6.97816 1.4097,6.42621 3.37644,12.63293 5.4884,18.6867 2.98375,8.57008 6.35128,16.96943 9.88689,25.25744 10.24637,24.02157 21.93635,47.3542 34.12742,70.33745 1e-5,2e-5 2e-5,4e-5 3e-5,6e-5 23.85057,45.03421 43.95095,92.36755 53.35276,141.98619 3.26553,17.23124 5.20424,34.66726 4.67091,51.96876 -0.42214,13.07051 -2.12172,26.03037 -6.43001,37.95045 -3.24622,8.85624 -7.76859,17.18367 -14.33152,23.06677 -2.73264,2.48542 -5.78882,4.56802 -9.05879,6.02844 -3.16436,1.42641 -6.59433,2.31237 -10.0647,2.62241 -7.76264,0.78912 -15.93314,-1.56935 -23.42679,-5.31491 -1e-5,0 -1e-5,0 -2e-5,-10e-6 -10.03218,-3.7041 -18.80125,-10.08182 -26.69644,-17.33242 8.28569,-6.31172 16.56079,-12.50594 25.0766,-18.274 2e-5,-2e-5 4e-5,-3e-5 5e-5,-4e-5 2.73832,-2.28813 5.4623,-4.50835 8.22998,-6.5778 1.86985,-1.38755 3.6207,-2.66023 5.34906,-3.6375 0.56488,-0.31431 1.02257,-0.56458 1.38845,-0.7031 0.30683,-0.0804 0.2983,-0.121 -0.0231,-0.0323 -0.23916,0.19808 -1.03333,1.5e-4 -2.46319,-0.49281 -4e-5,-2e-5 -8e-5,-3e-5 -1.2e-4,-4e-5 -1.34329,-0.86648 -2.13522,-1.73472 -2.39321,-2.69979 -0.19949,-0.88352 -0.30448,-1.2703 -0.21999,-1.20488 0.0147,0.0233 -0.0494,0.23232 -0.13596,0.62706 -1e-5,10e-6 -1e-5,3e-5 -2e-5,4e-5 -0.28735,1.16606 -0.84742,2.48861 -1.48976,4.0146 -0.89559,2.07531 -1.91797,4.16665 -2.99326,6.30479 -1.34625,2.6725 -2.75681,5.34258 -4.19514,8.02857 -3.58077,6.6857 -7.27667,13.35903 -10.9439,20.0993 -8.93137,16.40686 -17.68448,33.05821 -25.34936,50.34826 -3.91318,8.82717 -7.54695,17.84924 -10.64765,27.1216 -2.86502,8.54623 -5.28599,17.38695 -6.76914,26.52964 -1.31304,7.94214 -1.84425,16.30094 -0.75624,24.77648 0.49603,3.79384 1.37993,7.61606 2.7469,11.35981 1.31617,3.59619 3.11157,7.06284 5.3949,10.2633 2.34401,3.26481 5.14499,6.15457 8.28324,8.59382 3.45979,2.67676 7.21697,4.7956 11.08961,6.41562 9.92904,4.09959 20.36688,5.53431 30.33811,5.73398 14.48602,0.36466 28.73198,-1.41935 42.53388,-4.00266 19.43229,-3.61174 38.41383,-8.85981 57.02695,-14.77897 -18.83308,5.23604 -37.98404,9.7825 -57.4279,12.66366 -13.81724,2.05949 -27.95136,3.3137 -42.04788,2.43416 -9.70524,-0.58094 -19.61647,-2.28129 -28.59785,-6.42425 -3.48881,-1.61572 -6.80721,-3.64112 -9.76646,-6.11513 -2.68223,-2.24528 -5.03798,-4.85791 -6.95579,-7.74899 -1.87564,-2.83184 -3.32018,-5.90496 -4.35751,-9.08348 -1.08166,-3.31591 -1.73175,-6.73405 -2.05746,-10.15798 -0.72879,-7.67961 0.0875,-15.35718 1.57713,-22.82556 1.71386,-8.58461 4.35347,-16.93089 7.42523,-25.10131 3.32979,-8.85193 7.19363,-17.48509 11.34365,-25.98319 8.1264,-16.64048 17.36493,-32.70762 26.84829,-48.69742 3.8905,-6.55672 7.84562,-13.11359 11.7302,-19.76602 0,0 0,0 0,0 1.56169,-2.67407 3.11966,-5.38158 4.63935,-8.14492 1.2079,-2.19231 2.4145,-4.46543 3.54926,-6.85837 0,-10e-6 0,-2e-5 10e-6,-2e-5 0.80059,-1.64679 1.62893,-3.55651 2.29956,-5.79737 0.23881,-0.75812 0.44996,-1.74372 0.57697,-2.96296 0,-10e-6 0,-3e-5 1e-5,-4e-5 0.17249,-0.80085 0.0582,-2.13765 -0.44288,-3.97635 -0.49612,-1.71411 -1.80151,-3.26944 -3.90928,-4.56887 -2.30556,-0.9272 -4.02513,-1.19248 -5.06667,-0.88796 -1e-5,1e-5 -3e-5,1e-5 -5e-5,2e-5 -1.53332,0.21892 -2.674,0.54019 -3.41457,0.87405 -1.16014,0.4566 -2.15313,0.93857 -2.98907,1.39641 -2.54761,1.3769 -4.80476,2.87803 -6.84799,4.31189 -0.41143,0.28652 -0.8205,0.57448 -1.22733,0.86369 -2.58829,2.05958 -5.06884,4.16681 -7.48295,6.2696 -8.78146,9.29973 -17.18159,18.75553 -25.4699,28.07395 8.5311,11.03155 18.53762,21.10274 30.30127,28.39094 8.98646,4.47401 19.34369,7.04013 29.88293,6.00373 4.71759,-0.50823 9.33251,-1.79797 13.62185,-3.82037 4.40772,-2.09219 8.3811,-4.88821 11.82351,-8.16233 8.0821,-7.77505 13.34202,-17.61333 16.65769,-27.64622 4.4856,-13.40841 6.09584,-27.4048 6.21635,-41.13996 0,-1e-5 0,-2e-5 0,-3e-5 0.18088,-18.20204 -2.16829,-36.23463 -5.88291,-53.82692 -10.68537,-50.59807 -31.96233,-98.10513 -56.88668,-142.92114 -12.60353,-22.66823 -24.69358,-45.64141 -35.34856,-69.31497 -3.67579,-8.16696 -7.17782,-16.42148 -10.29405,-24.83574 -1e-5,-10e-6 -1e-5,-10e-6 -1e-5,-2e-5 -2.20668,-5.9563 -4.25839,-12.00025 -5.74759,-18.22287 -0.52146,-2.17774 -0.97191,-4.39014 -1.25423,-6.64442 0,-1e-5 -1e-5,-2e-5 -1e-5,-2e-5 -0.208,-1.63747 -0.33192,-3.33043 -0.20131,-5.05634 0.0693,-1.15035 0.30166,-2.41106 0.95781,-3.6075 10e-6,-2e-5 2e-5,-3e-5 3e-5,-5e-5 0.25461,-0.45488 0.60638,-0.88797 1.06276,-1.25644 10e-6,-10e-6 2e-5,-2e-5 3e-5,-2e-5 0.43681,-0.342 0.93788,-0.58258 1.47031,-0.70971 1.2728,-0.25868 2.46339,-0.0289 3.42434,0.37299 1.45791,0.55967 2.7405,1.3708 3.89898,2.222 1.65157,1.20121 3.16699,2.54328 4.60394,3.92336 1.88441,1.80734 3.66157,3.7088 5.37465,5.64775 4.66537,5.27992 8.93454,10.87792 13.03247,16.55813 1e-5,1e-5 1e-5,3e-5 2e-5,4e-5 5.56881,7.71663 10.82237,15.64978 15.89951,23.67727 14.17729,22.4153 27.07184,45.61969 39.36212,69.08995 38.52052,73.55728 71.27136,150.07446 101.3238,227.46049 z"
       style="fill:#000000;fill-rule:nonzero;stroke:none" />
    <path
       style="fill:#9aa0e9;fill-opacity:1;stroke:none"
       d="m 401.06808,584.49195 13.93125,54.08603 41.79376,-47.73501 z"
       id="path4058"
       inkscape:connector-curvature="0" />
    <path
       style="fill:#000000;fill-rule:nonzero;stroke:none"
       d="m 548.97423,589.91098 c 0.10339,0.17544 -1.25307,1.25548 -3.95586,2.96887 -1.35139,0.85669 -3.04236,1.86739 -5.08334,2.94521 -2.04097,1.07781 -4.43164,2.22426 -7.20526,3.28827 -1.76378,0.68108 -3.70389,1.33433 -5.82248,1.82256 -2.11858,0.48823 -4.41581,0.81197 -6.88357,0.76587 -3.10768,-0.0601 -6.48469,-0.87934 -9.45813,-2.94767 -2.60089,-1.86461 -4.65652,-4.52555 -6.07287,-7.50889 -1.56543,-3.26544 -2.54201,-6.87212 -3.16233,-10.54964 -0.69535,-4.06212 -1.01393,-8.29229 -1.12245,-12.59245 -0.2277,-8.91871 0.396,-18.28448 1.12879,-27.83311 0.3381,-4.43017 0.70458,-8.90414 1.00049,-13.40548 0.25724,-3.9288 0.47136,-7.85526 0.47734,-11.75825 -0.004,-3.11628 -0.0852,-6.13476 -0.59526,-8.95875 -0.19809,-1.08204 -0.42813,-2.08005 -0.76607,-2.94828 -1e-5,-10e-6 -1e-5,-10e-6 -1e-5,-2e-5 -0.28831,-0.70059 -0.55537,-1.27637 -0.87514,-1.62215 -0.24273,-0.25958 -0.46484,-0.46027 -0.62558,-0.48888 -0.15133,-0.0934 -0.49875,-0.0954 -0.92628,-0.0865 -0.61513,0.0217 -1.37074,0.28165 -2.24891,0.6151 -1.1804,0.47399 -2.37057,1.16574 -3.60574,1.95337 -3.76306,2.41173 -7.21687,5.52177 -10.67696,8.7859 -5.36629,5.09146 -10.37568,10.52912 -15.22049,15.98433 -4.37687,4.95343 -9.13712,9.51615 -14.19657,13.46069 -5.05946,3.94454 -10.41794,7.26929 -15.95833,9.85009 -4.88637,2.25571 -9.86627,3.8583 -14.74328,4.88615 -4.877,1.02785 -9.65074,1.48138 -14.17398,1.47642 -10e-6,0 -10e-6,0 -2e-5,0 -4.92006,-0.018 -9.47799,-0.53464 -13.60818,-1.28823 -4.13019,-0.75359 -7.83329,-1.74415 -11.07972,-2.77612 -3.43645,-1.09159 -6.34554,-2.21067 -8.75496,-3.19585 -2.40943,-0.98518 -4.31851,-1.83998 -5.71929,-2.4953 -2.80155,-1.31065 -3.58659,-1.82686 -2.00924,-1.36129 -0.51539,-0.22918 -1.02942,-0.4587 -1.54224,-0.68816 -2.09316,-0.93024 -4.06731,-1.8333 -5.99484,-2.52762 -0.70946,-0.25189 -1.33838,-0.4661 -1.89706,-0.58871 0,0 -10e-6,0 -10e-6,0 -0.44791,-0.0734 -0.68738,-0.14695 -0.70444,-0.11899 1e-5,0 1e-5,0 1e-5,0 0.0652,0.0685 0.33527,-0.0967 0.91761,-0.41991 0.50104,-0.52085 0.75166,-0.82157 0.73245,-1.03262 -0.0335,-0.1039 0.009,0.10712 -0.005,0.5774 0,0 0,10e-6 0,10e-6 0.0324,0.65211 0.19025,1.41319 0.38641,2.28185 0.65092,2.79727 1.70771,5.64193 2.82928,8.6049 1.7765,4.65897 3.74873,9.28737 5.768,13.93704 6.74813,15.53296 13.91119,30.92846 21.02196,46.38097 2.85337,6.09455 4.65724,12.94903 4.24767,19.97861 0,1e-5 0,2e-5 0,3e-5 -0.37996,5.78992 -2.46331,11.39774 -5.95583,16.00499 -3.58308,4.67086 -8.32327,8.19968 -13.43201,10.65935 -10e-6,0 -10e-6,0 -10e-6,10e-6 -5.72139,2.76745 -11.89102,4.3504 -18.07522,5.02771 -14.1249,1.55761 -28.54897,-1.32223 -41.07927,-7.73665 -6.86949,-3.51274 -13.16494,-8.12201 -18.54795,-13.62636 -5.88943,-6.02723 -10.64362,-13.09487 -14.12179,-20.71399 0,-10e-6 -1e-5,-2e-5 -1e-5,-2e-5 -3.98919,-8.7208 -6.10361,-18.34011 -5.68824,-27.92794 0.37305,-8.38758 2.64575,-16.62023 6.39655,-24.06456 3.45129,-6.85242 8.10514,-13.07162 13.6486,-18.33081 0,-10e-6 10e-6,-10e-6 10e-6,-2e-5 4.73546,-4.50061 10.15695,-8.38712 16.2249,-10.88745 2.4443,-1.00797 5.01688,-1.77971 7.67141,-2.09501 2.19973,-0.26517 4.49039,-0.19158 6.64773,0.48934 1.94327,0.6178 3.70827,1.79103 4.97588,3.39326 0,0 10e-6,10e-6 10e-6,2e-5 1.45691,1.86273 2.22276,4.14218 2.54374,6.41593 10e-6,0 10e-6,10e-6 10e-6,2e-5 0.45384,3.18111 0.16471,6.39814 -0.40707,9.50858 -0.80923,4.41825 -2.20919,8.69428 -3.84422,12.85137 -5.13873,13.06686 -12.47388,25.12091 -20.24495,36.77601 7.52401,-11.81622 14.59534,-24.0128 19.41818,-37.09136 1.53311,-4.15909 2.82579,-8.40357 3.52161,-12.73423 0.48616,-3.05279 0.70556,-6.14405 0.20778,-9.10251 -0.35976,-2.09818 -1.0763,-4.13728 -2.36866,-5.68014 -1.08613,-1.32753 -2.62207,-2.29006 -4.28134,-2.78153 -1.87266,-0.56357 -3.92326,-0.5681 -5.94492,-0.29579 -10e-6,0 -2e-5,0 -3e-5,0 -2.44303,0.33675 -4.83527,1.11793 -7.14433,2.12085 -5.74156,2.49677 -10.85588,6.351 -15.35217,10.78961 -5.24126,5.18832 -9.5885,11.26774 -12.75002,17.89235 -3.42698,7.18528 -5.41868,15.05131 -5.59435,22.93935 -0.21516,9.00505 1.99224,18.01805 5.9098,26.15214 1e-5,0 1e-5,0 1e-5,10e-6 3.45373,7.15346 8.08243,13.72846 13.71479,19.24588 5.14567,5.04641 11.12891,9.22881 17.59926,12.36746 11.83217,5.73136 25.31286,8.11885 38.19641,6.3997 5.62863,-0.75684 11.12197,-2.27419 16.0296,-4.80301 4.34814,-2.25484 8.27017,-5.25784 10.97443,-9.032 2.6353,-3.61318 4.16716,-8.06138 4.35354,-12.50914 0,-10e-6 0,-10e-6 0,-2e-5 0.29417,-5.51881 -1.42791,-11.19533 -3.96764,-16.51928 -7.42625,-15.28115 -14.93309,-30.56769 -22.06646,-46.08318 -2.13477,-4.6413 -4.25378,-9.34247 -6.21189,-14.16462 0,-10e-6 0,-10e-6 0,-10e-6 -1.22581,-2.99298 -2.46072,-6.17255 -3.36877,-9.63099 -0.28984,-1.07786 -0.54566,-2.30645 -0.68044,-3.68987 -0.13215,-0.89965 -0.0943,-2.13016 0.24902,-3.6443 0.24446,-1.21642 1.04167,-2.49601 2.41922,-3.70973 1.47381,-0.98821 2.80916,-1.44403 3.894,-1.43617 10e-6,0 2e-5,0 3e-5,0 1.33462,-0.063 2.41792,0.0565 3.22949,0.25775 1.1188,0.23816 2.11679,0.53778 3.00085,0.84438 2.39217,0.81813 4.59386,1.75888 6.66587,2.63647 0.51458,0.21623 1.02824,0.43183 1.54108,0.64641 1.5696,0.65672 3.71372,1.57173 6.36066,2.63952 2.64695,1.06779 5.79437,2.29387 9.4114,3.42557 3.00456,0.93936 6.35517,1.83946 10.00617,2.52955 3.651,0.6901 7.60271,1.17029 11.78137,1.21 3.88992,0.0485 8.00546,-0.29669 12.21861,-1.12958 4.21315,-0.83288 8.52358,-2.15375 12.75541,-4.02701 4.89092,-2.14278 9.69141,-5.01966 14.31227,-8.51078 4.62085,-3.49111 9.06196,-7.59488 13.25175,-12.09129 5.04174,-5.44977 10.3488,-10.9481 16.09925,-16.15758 3.64684,-3.32112 7.58648,-6.64951 12.09687,-9.42056 10e-6,0 2e-5,-10e-6 2e-5,-10e-6 1.49603,-0.92331 3.14368,-1.79743 4.96855,-2.49809 1.33553,-0.53196 2.89998,-0.93289 4.66184,-1.04018 1.41359,-0.0912 2.94727,0.16252 4.47834,0.83145 1.43387,0.69476 2.58304,1.65937 3.41659,2.77725 0.9335,1.25825 1.55618,2.5417 1.95111,3.75201 0.50193,1.47983 0.80992,2.9256 1.00385,4.29869 0.50564,3.53609 0.52205,6.96937 0.40842,10.2379 -0.13199,4.14817 -0.47425,8.20986 -0.8614,12.18193 -0.44346,4.56427 -0.95594,9.0459 -1.43925,13.44126 -1.04073,9.50826 -1.98747,18.61994 -2.09597,27.21518 -0.051,4.14437 0.0783,8.134 0.56626,11.91597 0.45334,3.43211 1.14451,6.65325 2.36019,9.47212 1.10114,2.51963 2.57468,4.7303 4.46366,6.18262 2.0674,1.66815 4.75078,2.45635 7.32402,2.6828 2.10594,0.18484 4.16633,0.0142 6.13057,-0.31499 1.96425,-0.32915 3.83249,-0.81733 5.57223,-1.33387 2.72848,-0.81927 5.13212,-1.73946 7.21669,-2.60231 2.08457,-0.86285 3.84982,-1.6699 5.28858,-2.32929 2.87751,-1.31879 4.45671,-2.02883 4.56962,-1.83726 z"
       id="path2989"
       inkscape:path-effect="#path-effect2991"
       inkscape:original-d="m 549.07185,590.07663 c -101.90812,60.05867 11.06383,-170.54553 -85.0574,-64.69638 -77.97363,85.86491 -154.05503,-70.58419 -78.46796,89.33894 25.47387,53.89626 -72.75592,70.71471 -102.41782,7.45064 -35.39373,-75.48914 104.73977,-132.95854 26.53498,-13.03932"
       inkscape:connector-curvature="0"
       sodipodi:nodetypes="csssc" />
    <path
       style="fill:#9aa0e9;fill-opacity:1;stroke:none"
       d="m 483.39045,554.34296 -32.13649,42.21852 40.74824,7.14145 z"
       id="path4060"
       inkscape:connector-curvature="0" />
    <path
       style="fill:#faec9d;fill-opacity:1;stroke:none"
       d="m 456.30913,641.68396 3.25935,31.94164 -20.20798,73.66133 78.22442,-57.36458 -43.02343,-62.57953 z"
       id="path4106"
       inkscape:connector-curvature="0"
       sodipodi:nodetypes="cccccc" />
    <path
       style="fill:#000000;fill-rule:nonzero;stroke:none"
       d="M 523.30783,714.44734 C 513.28542,692.18039 503.03856,670.01251 492.49739,648.00923 471.07081,593.47233 447.83364,539.62861 421.66203,487.14906 409.8429,463.4481 397.41067,439.99273 383.65768,417.26438 c -4.92539,-8.13999 -10.03613,-16.19855 -15.47792,-24.06213 -4.00117,-5.78564 -8.19658,-11.51524 -12.82457,-16.96695 -2e-5,-2e-5 -3e-5,-3e-5 -5e-5,-5e-5 -1.70014,-2.00317 -3.48169,-3.98409 -5.39107,-5.88886 -1.45061,-1.45247 -3.02168,-2.89412 -4.7768,-4.22578 -1.2102,-0.94396 -2.67025,-1.8864 -4.44377,-2.61959 -1.15568,-0.57826 -2.84273,-0.86616 -4.93295,-0.53937 -0.89474,0.20141 -1.73709,0.59408 -2.49355,1.16795 -0.77398,0.62192 -1.35247,1.29907 -1.74034,1.98829 -1e-5,2e-5 -2e-5,4e-5 -3e-5,6e-5 -0.94476,1.75633 -1.32076,3.38628 -1.37748,4.70024 0,3e-5 0,5e-5 0,8e-5 -0.1782,1.99903 -0.0853,3.88048 0.11,5.61171 0,2e-5 0,4e-5 0,7e-5 0.25647,2.40175 0.68081,4.72733 1.17574,6.97816 1.4097,6.42621 3.37644,12.63293 5.4884,18.6867 2.98375,8.57008 6.35128,16.96943 9.88689,25.25744 10.24637,24.02157 21.93635,47.3542 34.12742,70.33745 1e-5,2e-5 2e-5,4e-5 3e-5,6e-5 23.85057,45.03421 43.95095,92.36755 53.35276,141.98619 3.26553,17.23124 5.20424,34.66726 4.67091,51.96876 -0.42214,13.07051 -2.12172,26.03037 -6.43001,37.95045 -3.24622,8.85624 -7.76859,17.18367 -14.33152,23.06677 -2.73264,2.48542 -5.78882,4.56802 -9.05879,6.02844 -3.16436,1.42641 -6.59433,2.31237 -10.0647,2.62241 -7.76264,0.78912 -15.93314,-1.56935 -23.42679,-5.31491 -1e-5,0 -1e-5,0 -2e-5,-10e-6 -10.03218,-3.7041 -18.80125,-10.08182 -26.69644,-17.33242 8.28569,-6.31172 16.56079,-12.50594 25.0766,-18.274 2e-5,-2e-5 4e-5,-3e-5 5e-5,-4e-5 2.73832,-2.28813 5.4623,-4.50835 8.22998,-6.5778 1.86985,-1.38755 3.6207,-2.66023 5.34906,-3.6375 0.56488,-0.31431 1.02257,-0.56458 1.38845,-0.7031 0.30683,-0.0804 0.2983,-0.121 -0.0231,-0.0323 -0.23916,0.19808 -1.03333,1.5e-4 -2.46319,-0.49281 -4e-5,-2e-5 -8e-5,-3e-5 -1.2e-4,-4e-5 -1.34329,-0.86648 -2.13522,-1.73472 -2.39321,-2.69979 -0.19949,-0.88352 -0.30448,-1.2703 -0.21999,-1.20488 0.0147,0.0233 -0.0494,0.23232 -0.13596,0.62706 -1e-5,10e-6 -1e-5,3e-5 -2e-5,4e-5 -0.28735,1.16606 -0.84742,2.48861 -1.48976,4.0146 -0.89559,2.07531 -1.91797,4.16665 -2.99326,6.30479 -1.34625,2.6725 -2.75681,5.34258 -4.19514,8.02857 -3.58077,6.6857 -7.27667,13.35903 -10.9439,20.0993 -8.93137,16.40686 -17.68448,33.05821 -25.34936,50.34826 -3.91318,8.82717 -7.54695,17.84924 -10.64765,27.1216 -2.86502,8.54623 -5.28599,17.38695 -6.76914,26.52964 -1.31304,7.94214 -1.84425,16.30094 -0.75624,24.77648 0.49603,3.79384 1.37993,7.61606 2.7469,11.35981 1.31617,3.59619 3.11157,7.06284 5.3949,10.2633 2.34401,3.26481 5.14499,6.15457 8.28324,8.59382 3.45979,2.67676 7.21697,4.7956 11.08961,6.41562 9.92904,4.09959 20.36688,5.53431 30.33811,5.73398 14.48602,0.36466 28.73198,-1.41935 42.53388,-4.00266 19.43229,-3.61174 38.41383,-8.85981 57.02695,-14.77897 -18.83308,5.23604 -37.98404,9.7825 -57.4279,12.66366 -13.81724,2.05949 -27.95136,3.3137 -42.04788,2.43416 -9.70524,-0.58094 -19.61647,-2.28129 -28.59785,-6.42425 -3.48881,-1.61572 -6.80721,-3.64112 -9.76646,-6.11513 -2.68223,-2.24528 -5.03798,-4.85791 -6.95579,-7.74899 -1.87564,-2.83184 -3.32018,-5.90496 -4.35751,-9.08348 -1.08166,-3.31591 -1.73175,-6.73405 -2.05746,-10.15798 -0.72879,-7.67961 0.0875,-15.35718 1.57713,-22.82556 1.71386,-8.58461 4.35347,-16.93089 7.42523,-25.10131 3.32979,-8.85193 7.19363,-17.48509 11.34365,-25.98319 8.1264,-16.64048 17.36493,-32.70762 26.84829,-48.69742 3.8905,-6.55672 7.84562,-13.11359 11.7302,-19.76602 0,0 0,0 0,0 1.56169,-2.67407 3.11966,-5.38158 4.63935,-8.14492 1.2079,-2.19231 2.4145,-4.46543 3.54926,-6.85837 0,-10e-6 0,-2e-5 10e-6,-2e-5 0.80059,-1.64679 1.62893,-3.55651 2.29956,-5.79737 0.23881,-0.75812 0.44996,-1.74372 0.57697,-2.96296 0,-10e-6 0,-3e-5 1e-5,-4e-5 0.17249,-0.80085 0.0582,-2.13765 -0.44288,-3.97635 -0.49612,-1.71411 -1.80151,-3.26944 -3.90928,-4.56887 -2.30556,-0.9272 -4.02513,-1.19248 -5.06667,-0.88796 -1e-5,1e-5 -3e-5,1e-5 -5e-5,2e-5 -1.53332,0.21892 -2.674,0.54019 -3.41457,0.87405 -1.16014,0.4566 -2.15313,0.93857 -2.98907,1.39641 -2.54761,1.3769 -4.80476,2.87803 -6.84799,4.31189 -0.41143,0.28652 -0.8205,0.57448 -1.22733,0.86369 -2.58829,2.05958 -5.06884,4.16681 -7.48295,6.2696 -8.78146,9.29973 -17.18159,18.75553 -25.4699,28.07395 8.5311,11.03155 18.53762,21.10274 30.30127,28.39094 8.98646,4.47401 19.34369,7.04013 29.88293,6.00373 4.71759,-0.50823 9.33251,-1.79797 13.62185,-3.82037 4.40772,-2.09219 8.3811,-4.88821 11.82351,-8.16233 8.0821,-7.77505 13.34202,-17.61333 16.65769,-27.64622 4.4856,-13.40841 6.09584,-27.4048 6.21635,-41.13996 0,-1e-5 0,-2e-5 0,-3e-5 0.18088,-18.20204 -2.16829,-36.23463 -5.88291,-53.82692 -10.68537,-50.59807 -31.96233,-98.10513 -56.88668,-142.92114 -12.60353,-22.66823 -24.69358,-45.64141 -35.34856,-69.31497 -3.67579,-8.16696 -7.17782,-16.42148 -10.29405,-24.83574 -1e-5,-10e-6 -1e-5,-10e-6 -1e-5,-2e-5 -2.20668,-5.9563 -4.25839,-12.00025 -5.74759,-18.22287 -0.52146,-2.17774 -0.97191,-4.39014 -1.25423,-6.64442 0,-1e-5 -1e-5,-2e-5 -1e-5,-2e-5 -0.208,-1.63747 -0.33192,-3.33043 -0.20131,-5.05634 0.0693,-1.15035 0.30166,-2.41106 0.95781,-3.6075 10e-6,-2e-5 2e-5,-3e-5 3e-5,-5e-5 0.25461,-0.45488 0.60638,-0.88797 1.06276,-1.25644 10e-6,-10e-6 2e-5,-2e-5 3e-5,-2e-5 0.43681,-0.342 0.93788,-0.58258 1.47031,-0.70971 1.2728,-0.25868 2.46339,-0.0289 3.42434,0.37299 1.45791,0.55967 2.7405,1.3708 3.89898,2.222 1.65157,1.20121 3.16699,2.54328 4.60394,3.92336 1.88441,1.80734 3.66157,3.7088 5.37465,5.64775 4.66537,5.27992 8.93454,10.87792 13.03247,16.55813 1e-5,1e-5 1e-5,3e-5 2e-5,4e-5 5.56881,7.71663 10.82237,15.64978 15.89951,23.67727 14.17729,22.4153 27.07184,45.61969 39.36212,69.08995 38.52052,73.55728 71.27136,150.07446 101.3238,227.46049 z"
       id="path3769"
       inkscape:path-effect="#path-effect3771"
       inkscape:original-d="M 516.27471,717.0522 C 373.41757,331.33792 266.27472,274.19506 384.84614,495.62362 c 118.57143,221.42858 35.56696,326.32255 -40,242.85715 167.87161,-155.19658 -211.64248,261.16779 130.93581,150.85872"
       inkscape:connector-curvature="0"
       sodipodi:nodetypes="cscc" />
    <path
       inkscape:connector-curvature="0"
       id="path4076"
       d="m 470.743,567.71027 -17.73157,23.29442 22.48316,3.94035 z"
       style="fill:#626cdd;fill-opacity:1;stroke:none" />
    <path
       transform="matrix(1.7712441,0,0,1.7712441,1713.1116,318.70936)"
       d="m -733.58892,71.119415 c 0,3.945853 -3.19875,7.144599 -7.1446,7.144599 -3.94585,0 -7.1446,-3.198746 -7.1446,-7.144599 0,-3.945853 3.19875,-7.144598 7.1446,-7.144598 3.94585,0 7.1446,3.198745 7.1446,7.144598 z"
       sodipodi:ry="7.1445985"
       sodipodi:rx="7.1445985"
       sodipodi:cy="71.119415"
       sodipodi:cx="-740.73352"
       id="path3931"
       style="fill:#ffffff;fill-opacity:1;fill-rule:evenodd;stroke:#000000;stroke-width:0.84686238;stroke-miterlimit:4;stroke-opacity:1;stroke-dasharray:none"
       sodipodi:type="arc" />
    <path
       style="fill:#042649;fill-opacity:1;stroke:none"
       d="m 393.15921,198.81272 7.90392,-5.78535 3.17787,-0.32593 -0.24445,6.27425 -6.19276,4.31864 z"
       id="path4072"
       inkscape:connector-curvature="0"
       transform="translate(0,252.36218)"
       sodipodi:nodetypes="cccccc" />
    <path
       style="fill:#f0e28e;fill-opacity:1;stroke:none"
       d="m 388.99237,479.40398 21.56983,47.92512 2.40162,8.11381 -12.97477,-17.73678 z"
       id="path4074"
       inkscape:connector-curvature="0" />
    <path
       style="fill:#000000;fill-rule:evenodd;stroke:none"
       d="m 406.89084,483.4947 c 5.53146,10.29517 10.61346,20.92459 14.00928,32.24404 1.00144,3.3266 1.87806,6.7648 2.22605,10.35823 0,0 0,10e-6 0,10e-6 0.11611,1.17034 0.16398,2.40504 0.0347,3.69047 -0.0579,0.84779 -0.27883,1.84347 -0.84627,2.87654 -0.43777,0.82182 -1.28403,1.48616 -2.48331,1.77861 -1.27392,0.12374 -2.30281,-0.16298 -2.97666,-0.61036 -2.51747,-1.42701 -4.22303,-3.56835 -5.56755,-5.46324 -1.64027,-2.19249 -3.10035,-4.48875 -4.44838,-6.82245 -0.70129,-1.43926 -1.36028,-2.88676 -1.9939,-4.33197 -2.5442,-5.78463 -4.70426,-11.68806 -6.67529,-17.62269 -3.13874,-9.44263 -6.31038,-18.96859 -8.40957,-28.73991 -0.45833,-2.12499 -0.89357,-4.29541 -0.9849,-6.4987 0,0 0,-10e-6 0,-10e-6 -0.0256,-0.59059 -0.0241,-1.20008 0.079,-1.80517 0,0 0,0 0,0 0.0537,-0.35313 0.16046,-0.74006 0.40859,-1.06722 0,0 0,0 0,0 0.17942,-0.22897 0.44893,-0.37632 0.74335,-0.39468 0,0 10e-6,0 10e-6,0 0,0 0,0 0,0 0.31309,-0.008 0.59237,0.0942 0.82837,0.22318 0.65524,0.34801 1.17404,0.86413 1.65554,1.38095 0,10e-6 0,10e-6 0,10e-6 0.4934,0.52722 0.94733,1.08631 1.37854,1.65997 0,0 0,0 0,0 0.14471,0.19251 0.28677,0.38692 0.42555,0.58347 0.0394,0.0558 0.0785,0.11175 0.11724,0.16796 0.01,0.0154 0.02,0.0306 0.0306,0.0455 0.004,0.005 0.008,0.0108 0.0116,0.0161 1e-5,2e-5 2e-5,3e-5 2e-5,3e-5 0,0 -10e-6,-1e-5 -2e-5,-3e-5 -0.004,-0.005 -0.008,-0.0107 -0.0119,-0.0159 -0.0111,-0.0145 -0.0226,-0.0287 -0.0346,-0.0426 -0.0427,-0.0533 -0.0857,-0.1062 -0.12895,-0.15893 0,0 0,0 0,0 -0.15249,-0.18584 -0.3079,-0.36911 -0.46572,-0.55016 -0.47038,-0.53963 -0.96046,-1.06111 -1.48293,-1.54398 -0.51585,-0.47486 -1.04899,-0.93642 -1.66032,-1.19992 -0.21986,-0.0911 -0.43916,-0.16117 -0.63089,-0.1316 -0.15249,0.0147 -0.29921,0.11765 -0.38663,0.24871 -0.15885,0.22194 -0.20496,0.53115 -0.24448,0.85512 -0.0554,0.54687 -0.0127,1.1081 0.0504,1.67694 0.23908,2.11934 0.81846,4.18983 1.42212,6.26799 2.77341,9.51333 6.58652,18.67013 10.39444,27.86574 1e-5,0 1e-5,0 1e-5,0 2.37103,5.71535 4.90329,11.34158 7.76856,16.75128 0.72133,1.35871 1.45485,2.70142 2.21485,4.0142 1.11172,2.29873 2.30628,4.52679 3.66443,6.63398 1.30458,1.90387 2.38426,3.71406 3.8855,4.58886 0.3659,0.14816 0.53085,0.32596 0.44096,0.26578 0,0 0,0 0,0 -0.18192,0.13441 -0.16941,0.0769 -0.0626,0.0249 0.22847,-0.244 0.33801,-0.76119 0.48416,-1.4043 0.1744,-0.93301 0.20047,-1.9502 0.18165,-3.01492 0,-10e-6 0,-10e-6 0,-10e-6 -0.0663,-3.26971 -0.66886,-6.58966 -1.40379,-9.91584 -2.50321,-11.28227 -6.78356,-22.21625 -11.5568,-32.88413 z"
       id="path3777"
       inkscape:path-effect="#path-effect3779"
       inkscape:original-d="m 406.89084,483.4947 c 26.1752,53.24871 13.17259,70.09639 -7.1691,15.51867 -20.34169,-54.57772 -5.26836,-33.84994 -5.26836,-33.84994"
       inkscape:connector-curvature="0"
       sodipodi:nodetypes="csc" />
    <path
       transform="matrix(2.4571068,0,0,2.4571068,2080.9776,297.34366)"
       d="m -682.42435,60.978695 c 0,1.527427 -1.23823,2.765651 -2.76565,2.765651 -1.52743,0 -2.76565,-1.238224 -2.76565,-2.765651 0,-1.527427 1.23822,-2.765651 2.76565,-2.765651 1.52742,0 2.76565,1.238224 2.76565,2.765651 z"
       sodipodi:ry="2.765651"
       sodipodi:rx="2.765651"
       sodipodi:cy="60.978695"
       sodipodi:cx="-685.19"
       id="path3935"
       style="fill:none;fill-opacity:1;fill-rule:evenodd;stroke:#000000;stroke-opacity:1;stroke-width:0.40698272;stroke-miterlimit:4;stroke-dasharray:none"
       sodipodi:type="arc" />
    <path
       sodipodi:type="arc"
       style="fill:#ffffff;fill-opacity:1;fill-rule:evenodd;stroke:#000000;stroke-width:0.70657176;stroke-miterlimit:4;stroke-opacity:1;stroke-dasharray:none"
       id="path3958"
       sodipodi:cx="-740.73352"
       sodipodi:cy="71.119415"
       sodipodi:rx="7.1445985"
       sodipodi:ry="7.1445985"
       d="m -733.58892,71.119415 c 0,3.945853 -3.19875,7.144599 -7.1446,7.144599 -3.94585,0 -7.1446,-3.198746 -7.1446,-7.144599 0,-0.668173 0.0937,-1.333044 0.27845,-1.975176 l 6.86615,1.975176 z"
       transform="matrix(-1.7149001,1.2359403,-1.2359403,-1.7149001,-781.51407,1481.5846)"
       sodipodi:start="0"
       sodipodi:end="3.4216984"
       inkscape:transform-center-y="-3.4434352"
       inkscape:transform-center-x="0.66503206" />
    <path
       sodipodi:type="arc"
       style="fill:#ffffff;fill-opacity:1;fill-rule:evenodd;stroke:#000000;stroke-width:0.85465169;stroke-miterlimit:4;stroke-opacity:1;stroke-dasharray:none"
       id="path3929"
       sodipodi:cx="-740.73352"
       sodipodi:cy="71.119415"
       sodipodi:rx="7.1445985"
       sodipodi:ry="7.1445985"
       d="m -733.58892,71.119415 c 0,3.945853 -3.19875,7.144599 -7.1446,7.144599 -3.94585,0 -7.1446,-3.198746 -7.1446,-7.144599 0,-3.945853 3.19875,-7.144598 7.1446,-7.144598 3.94585,0 7.1446,3.198745 7.1446,7.144598 z"
       transform="matrix(1.755101,0,0,1.755101,1667.2746,341.52171)" />
    <path
       style="fill:#042649;fill-opacity:1;stroke:none"
       d="m 365.12878,467.55314 10.83734,-5.70386 0.89633,4.31864 -5.86683,6.76316 z"
       id="path4070"
       inkscape:connector-curvature="0"
       sodipodi:nodetypes="ccccc" />
    <path
       sodipodi:type="arc"
       style="fill:none;fill-opacity:1;fill-rule:evenodd;stroke:#000000;stroke-width:0.38595281999999997;stroke-miterlimit:4;stroke-dasharray:none;stroke-opacity:1"
       id="path3933"
       sodipodi:cx="-685.19"
       sodipodi:cy="60.978695"
       sodipodi:rx="2.765651"
       sodipodi:ry="2.765651"
       d="m -682.42435,60.978695 c 0,1.527427 -1.23823,2.765651 -2.76565,2.765651 -1.52743,0 -2.76565,-1.238224 -2.76565,-2.765651 0,-1.527427 1.23822,-2.765651 2.76565,-2.765651 1.52742,0 2.76565,1.238224 2.76565,2.765651 z"
       transform="matrix(2.5909903,0,0,2.5909903,2145.4197,305.47555)" />
    <path
       style="fill:none;fill-rule:evenodd;stroke:#000000;stroke-opacity:1;stroke-width:0.5;stroke-miterlimit:4;stroke-dasharray:none"
       d="m 441.60489,557.91897 c 0.05,1.52047 -0.30608,3.14785 -1.22787,4.61186 -0.77706,1.2156 -1.90578,2.26122 -3.26485,2.99739 -0.11492,0.017 -0.22978,0.0318 -0.34452,0.0445 -3.21699,0.36891 -6.2868,-0.91194 -7.98069,-3.01418 2.41014,1.21651 5.1663,0.86837 7.00979,-0.26228 0.0647,-0.0405 0.1283,-0.082 0.19087,-0.12452 1.00388,-0.0555 2.05783,-0.35703 2.98495,-0.95824 1.11292,-0.70515 2.05079,-1.88872 2.63232,-3.29448 z"
       id="path3835"
       inkscape:connector-curvature="0" />
    <path
       style="fill:#e47272;fill-opacity:1;stroke:none"
       d="m 429.98987,563.7322 10.51141,-2.14365 -3.92376,4.31237 z"
       id="path4090"
       inkscape:connector-curvature="0"
       sodipodi:nodetypes="cccc" />
    <path
       inkscape:connector-curvature="0"
       id="path4080"
       d="m 416.44678,588.5184 9.00755,34.97051 27.02266,-30.86412 z"
       style="fill:#626bdd;fill-opacity:1;stroke:none" />
    <path
       id="path3860"
       transform="matrix(-1.1921317,0.04724922,-0.04724922,-1.1921317,-245.62525,891.8316)"
       style="fill:none;stroke:#000000;stroke-width:1.25;stroke-miterlimit:4;stroke-opacity:1"
       d="m -585.62662,227.49393 c 0,5.02778 -4.28219,9.1036 -9.56454,9.1036 -5.28235,0 -9.56454,-4.07582 -9.56454,-9.1036 0,-5.02778 4.28219,-9.1036 9.56454,-9.1036 5.28235,0 9.56454,4.07582 9.56454,9.1036 z m 36.7395,3.6996 c -9.06184,-17.21817 -9.95717,-17.54845 -14.06021,-40.27857 -29.87623,19.64776 -29.52731,39.64402 -53.56343,62.14764 -4.94681,-20.92475 -3.97627,-20.86765 -12.30006,-33.63143 32.59079,0.64658 42.91012,18.59813 79.9237,11.76236 z" />
    <path
       inkscape:connector-curvature="0"
       id="path4084"
       d="m 459.67423,583.23863 -7.37507,-4.95512 -11.52354,6.33795 2.18947,13.94349 c 0,0 7.02937,2.41994 7.49031,1.959 0.46094,-0.46094 8.29695,-6.10748 8.29695,-6.10748 l 3.34183,0 z"
       style="fill:#989ee9;fill-opacity:1;stroke:none" />
    <path
       style="fill:#626bdd;fill-opacity:1;stroke:none"
       d="m 449.33463,582.60821 -6.56552,5.98656 3.4185,12.69942 14.06442,1.18616 c 0,0 4.02079,-6.25311 3.68257,-6.81037 -0.33822,-0.55726 -3.96126,-9.51047 -3.96126,-9.51047 l 0.79401,-3.24614 z"
       id="path4082"
       inkscape:connector-curvature="0" />
    <path
       inkscape:transform-center-x="0.91411844"
       inkscape:transform-center-y="-2.821712"
       sodipodi:end="3.4216984"
       sodipodi:start="0"
       transform="matrix(1.8838588,-0.91323272,-0.91323272,-1.8838588,1826.4256,-76.719255)"
       d="m -733.58892,71.119415 c 0,3.945853 -3.19875,7.144599 -7.1446,7.144599 -3.94585,0 -7.1446,-3.198746 -7.1446,-7.144599 0,-0.668173 0.0937,-1.333044 0.27845,-1.975176 l 6.86615,1.975176 z"
       sodipodi:ry="7.1445985"
       sodipodi:rx="7.1445985"
       sodipodi:cy="71.119415"
       sodipodi:cx="-740.73352"
       id="path3960"
       style="fill:#ffffff;fill-opacity:1;fill-rule:evenodd;stroke:#000000;stroke-width:0.70657176;stroke-miterlimit:4;stroke-opacity:1;stroke-dasharray:none"
       sodipodi:type="arc" />
    <path
       sodipodi:type="arc"
       style="fill:none;stroke:#000000;stroke-width:1.06370759;stroke-miterlimit:4;stroke-opacity:1;stroke-dasharray:none"
       id="path3785"
       sodipodi:cx="-627.30475"
       sodipodi:cy="-49.885418"
       sodipodi:rx="11.111678"
       sodipodi:ry="11.111678"
       d="m -616.19307,-49.885418 c 0,6.13681 -4.97487,11.111678 -11.11168,11.111678 -6.13681,0 -11.11168,-4.974868 -11.11168,-11.111678 0,-6.13681 4.97487,-11.111678 11.11168,-11.111678 6.13681,0 11.11168,4.974868 11.11168,11.111678 z"
       transform="matrix(1.7169469,0,0,1.7169469,1443.6413,550.44363)" />
    <path
       transform="matrix(1.7563077,0,0,1.7563077,1503.3938,531.18861)"
       d="m -616.19307,-49.885418 c 0,6.13681 -4.97487,11.111678 -11.11168,11.111678 -6.13681,0 -11.11168,-4.974868 -11.11168,-11.111678 0,-6.13681 4.97487,-11.111678 11.11168,-11.111678 6.13681,0 11.11168,4.974868 11.11168,11.111678 z"
       sodipodi:ry="11.111678"
       sodipodi:rx="11.111678"
       sodipodi:cy="-49.885418"
       sodipodi:cx="-627.30475"
       id="path3795"
       style="fill:none;stroke:#000000;stroke-width:0.875;stroke-miterlimit:4;stroke-opacity:1;stroke-dasharray:none"
       sodipodi:type="arc" />
    <path
       style="fill:#fcf4c5;stroke:none;stroke-width:1px;stroke-linecap:butt;stroke-linejoin:miter;stroke-opacity:1;fill-opacity:1"
       d="m 375.15129,205.16846 -9.12618,-5.86683 -16.94863,11.08179 5.21497,10.75586 z"
       id="path4064"
       inkscape:connector-curvature="0"
       transform="translate(0,252.36218)" />
    <path
       style="fill:#fcf4c5;stroke:none;stroke-width:1px;stroke-linecap:butt;stroke-linejoin:miter;stroke-opacity:1;fill-opacity:1"
       d="m 389.81837,195.71634 23.79326,-9.45212 -4.56309,-9.77805 -22.16359,7.82244 z"
       id="path4066"
       inkscape:connector-curvature="0"
       transform="translate(0,252.36218)" />
    <path
       style="fill:#f9e98a;stroke:none;stroke-width:1px;stroke-linecap:butt;stroke-linejoin:miter;stroke-opacity:1;fill-opacity:1"
       d="m 390.41773,193.05485 15.32631,-9.33407 6.33795,1.72853 z"
       id="path4086"
       inkscape:connector-curvature="0"
       transform="translate(0,252.36218)" />
    <path
       style="fill:#f9e98a;stroke:none;stroke-width:1px;stroke-linecap:butt;stroke-linejoin:miter;stroke-opacity:1;fill-opacity:1"
       d="m 372.09529,205.26981 -7.1446,1.49806 -9.67978,14.75014 z"
       id="path4088"
       inkscape:connector-curvature="0"
       transform="translate(0,252.36218)" />
    <path
       style="fill:#fefceb;fill-opacity:1;stroke:none"
       d="m 340.27624,368.55036 3.58528,10.10399 29.33416,35.85286 -10.10399,-23.14139 z"
       id="path4092"
       inkscape:connector-curvature="0" />
    <path
       style="fill:#fefced;stroke:none;stroke-width:1px;stroke-linecap:butt;stroke-linejoin:miter;stroke-opacity:1;fill-opacity:1"
       d="m 410.4687,250.55734 0.46094,12.90637 8.06648,13.59779 z"
       id="path4096"
       inkscape:connector-curvature="0"
       transform="translate(0,252.36218)" />
  </g>
</svg>
